<svg width="1440" height="306" viewBox="0 0 1440 306" fill="none" xmlns="http://www.w3.org/2000/svg">
<path d="M-0.824621 302.747C-1.51663 303.202 -1.70842 304.133 -1.253 304.825C-0.79757 305.517 0.132611 305.708 0.824621 305.253L-0.824621 302.747ZM167.616 269.222L167.77 267.73L167.719 267.725L167.668 267.723L167.616 269.222ZM688.426 191.021C812.992 195.377 866.828 174.123 910.197 145.296C953.475 116.53 985.718 80.7708 1067.94 55.5979L1067.06 52.7294C984.282 78.0729 951.35 114.34 908.536 142.798C865.812 171.195 812.637 192.362 688.531 188.023L688.426 191.021ZM0 304C0.824621 305.253 0.824293 305.253 0.824187 305.253C0.824449 305.253 0.824566 305.253 0.82509 305.253C0.826137 305.252 0.828074 305.251 0.830902 305.249C0.836558 305.245 0.845774 305.239 0.858548 305.231C0.884095 305.214 0.92387 305.189 0.977844 305.154C1.08579 305.085 1.25053 304.981 1.47182 304.845C1.9144 304.571 2.58316 304.167 3.47619 303.652C5.26226 302.622 7.94529 301.148 11.5099 299.387C18.6391 295.866 29.2941 291.198 43.352 286.642C71.4655 277.531 113.196 268.867 167.565 270.721L167.668 267.723C112.92 265.855 70.8427 274.58 42.4271 283.788C28.2204 288.392 17.4307 293.117 10.1813 296.698C6.55653 298.488 3.81677 299.993 1.97739 301.054C1.05769 301.584 0.363061 302.004 -0.104574 302.292C-0.338392 302.437 -0.515465 302.548 -0.635552 302.625C-0.695595 302.663 -0.741393 302.693 -0.772915 302.713C-0.788675 302.724 -0.800867 302.731 -0.809486 302.737C-0.813796 302.74 -0.817212 302.742 -0.819735 302.744C-0.820996 302.745 -0.822218 302.745 -0.822848 302.746C-0.823847 302.746 -0.824621 302.747 0 304ZM167.463 270.714C297.713 284.079 379.954 285.248 433.927 279.586C487.936 273.92 513.761 261.402 531.065 247.318C539.662 240.321 546.141 232.941 552.808 226.055C559.499 219.146 566.457 212.644 576.172 207.128C595.603 196.094 626.348 188.851 688.426 191.021L688.531 188.023C626.272 185.846 594.849 193.073 574.69 204.519C564.61 210.243 557.418 216.983 550.653 223.968C543.867 230.976 537.586 238.142 529.171 244.991C512.452 258.599 487.242 270.977 433.614 276.602C379.949 282.232 297.951 281.088 167.77 267.73L167.463 270.714ZM1067.94 55.5979C1232.85 5.10929 1265.24 19.5898 1333.67 8.41801L1333.18 5.45722C1265.52 16.5048 1232.15 2.18526 1067.06 52.7294L1067.94 55.5979ZM1333.67 8.41801C1367.57 2.88344 1394.09 2.88702 1412.12 4.26713C1421.13 4.95722 1428.02 5.99154 1432.64 6.85014C1434.96 7.27945 1436.7 7.66483 1437.86 7.94129C1438.45 8.07952 1438.88 8.19052 1439.17 8.26616C1439.31 8.30399 1439.42 8.33297 1439.49 8.3521C1439.52 8.36167 1439.55 8.36877 1439.56 8.37328C1439.57 8.37553 1439.58 8.37714 1439.58 8.37809C1439.58 8.37856 1439.58 8.37887 1439.58 8.379C1439.58 8.37907 1439.58 8.37905 1439.58 8.37909C1439.58 8.37902 1439.58 8.37891 1440 6.93764C1440.42 5.49637 1440.41 5.49618 1440.41 5.49594C1440.41 5.49581 1440.41 5.49553 1440.41 5.49526C1440.41 5.49473 1440.41 5.49402 1440.4 5.49316C1440.4 5.49142 1440.39 5.48902 1440.38 5.48598C1440.36 5.4799 1440.33 5.47123 1440.29 5.46012C1440.21 5.43788 1440.09 5.40584 1439.93 5.36501C1439.62 5.28334 1439.16 5.1665 1438.56 5.02265C1437.35 4.73495 1435.55 4.33918 1433.19 3.90054C1428.47 3.02326 1421.47 1.97451 1412.35 1.27589C1394.1 -0.121429 1367.33 -0.117858 1333.18 5.45722L1333.67 8.41801Z" fill="#2E36D5"/>
</svg>
